<?xml version="1.0" encoding="UTF-8"?>
<!DOCTYPE svg PUBLIC "-//W3C//DTD SVG 1.1//EN" "http://www.w3.org/Graphics/SVG/1.1/DTD/svg11.dtd">
<svg xmlns="http://www.w3.org/2000/svg" version="1.1" width="492px" height="192px" style="shape-rendering:geometricPrecision; text-rendering:geometricPrecision; image-rendering:optimizeQuality; fill-rule:evenodd; clip-rule:evenodd" xmlns:xlink="http://www.w3.org/1999/xlink">
<g><path style="opacity:1" fill="#fefffe" d="M 107.5,35.5 C 203.5,35.5 299.5,35.5 395.5,35.5C 395.5,37.5 395.5,39.5 395.5,41.5C 299.5,41.5 203.5,41.5 107.5,41.5C 107.5,39.5 107.5,37.5 107.5,35.5 Z"/></g>
<g><path style="opacity:1" fill="#fefffe" d="M 83.5,47.5 C 195.5,47.5 307.5,47.5 419.5,47.5C 419.5,79.5 419.5,111.5 419.5,143.5C 413.5,143.5 407.5,143.5 401.5,143.5C 401.5,141.5 401.5,139.5 401.5,137.5C 405.5,137.5 409.5,137.5 413.5,137.5C 413.5,109.5 413.5,81.5 413.5,53.5C 305.5,53.5 197.5,53.5 89.5,53.5C 89.5,81.5 89.5,109.5 89.5,137.5C 93.5,137.5 97.5,137.5 101.5,137.5C 101.5,139.5 101.5,141.5 101.5,143.5C 95.5,143.5 89.5,143.5 83.5,143.5C 83.5,111.5 83.5,79.5 83.5,47.5 Z M 275.5,71.5 C 277.5,71.5 279.5,71.5 281.5,71.5C 281.5,75.5 281.5,79.5 281.5,83.5C 279.5,83.5 277.5,83.5 275.5,83.5C 275.5,79.5 275.5,75.5 275.5,71.5 Z M 311.5,71.5 C 311.5,89.5 311.5,107.5 311.5,125.5C 309.5,125.5 307.5,125.5 305.5,125.5C 305.5,107.5 305.5,89.5 305.5,71.5C 307.5,71.5 309.5,71.5 311.5,71.5 Z M 365.5,71.5 C 365.5,89.5 365.5,107.5 365.5,125.5C 363.5,125.5 361.5,125.5 359.5,125.5C 359.5,107.5 359.5,89.5 359.5,71.5C 361.5,71.5 363.5,71.5 365.5,71.5 Z"/></g>
<g><path style="opacity:1" fill="#fefffe" d="M 107.5,59.5 C 109.5,59.5 111.5,59.5 113.5,59.5C 113.5,89.5 113.5,119.5 113.5,149.5C 205.5,149.5 297.5,149.5 389.5,149.5C 389.5,119.5 389.5,89.5 389.5,59.5C 391.5,59.5 393.5,59.5 395.5,59.5C 395.5,91.5 395.5,123.5 395.5,155.5C 299.5,155.5 203.5,155.5 107.5,155.5C 107.5,123.5 107.5,91.5 107.5,59.5 Z M 275.5,71.5 C 275.5,75.5 275.5,79.5 275.5,83.5C 277.5,83.5 279.5,83.5 281.5,83.5C 281.5,79.5 281.5,75.5 281.5,71.5C 279.5,71.5 277.5,71.5 275.5,71.5 Z M 311.5,71.5 C 309.5,71.5 307.5,71.5 305.5,71.5C 305.5,89.5 305.5,107.5 305.5,125.5C 307.5,125.5 309.5,125.5 311.5,125.5C 311.5,107.5 311.5,89.5 311.5,71.5 Z M 365.5,71.5 C 363.5,71.5 361.5,71.5 359.5,71.5C 359.5,89.5 359.5,107.5 359.5,125.5C 361.5,125.5 363.5,125.5 365.5,125.5C 365.5,107.5 365.5,89.5 365.5,71.5 Z"/></g>
<g><path style="opacity:1" fill="#fefffe" d="M 125.5,59.5 C 129.5,59.5 133.5,59.5 137.5,59.5C 137.5,81.5 137.5,103.5 137.5,125.5C 139.5,125.5 141.5,125.5 143.5,125.5C 143.5,103.5 143.5,81.5 143.5,59.5C 145.5,59.5 147.5,59.5 149.5,59.5C 149.5,83.5 149.5,107.5 149.5,131.5C 143.5,131.5 137.5,131.5 131.5,131.5C 131.5,129.5 131.5,127.5 131.5,125.5C 129.5,125.5 127.5,125.5 125.5,125.5C 125.5,103.5 125.5,81.5 125.5,59.5 Z"/></g>
<g><path style="opacity:1" fill="#fefffe" d="M 209.5,59.5 C 211.5,59.5 213.5,59.5 215.5,59.5C 215.5,67.5 215.5,75.5 215.5,83.5C 217.5,83.5 219.5,83.5 221.5,83.5C 221.5,75.5 221.5,67.5 221.5,59.5C 223.5,59.5 225.5,59.5 227.5,59.5C 227.5,61.5 227.5,63.5 227.5,65.5C 229.5,65.5 231.5,65.5 233.5,65.5C 233.5,87.5 233.5,109.5 233.5,131.5C 229.5,131.5 225.5,131.5 221.5,131.5C 221.5,119.5 221.5,107.5 221.5,95.5C 219.5,95.5 217.5,95.5 215.5,95.5C 215.5,107.5 215.5,119.5 215.5,131.5C 213.5,131.5 211.5,131.5 209.5,131.5C 209.5,107.5 209.5,83.5 209.5,59.5 Z"/></g>
<g><path style="opacity:1" fill="#fefffe" d="M 161.5,65.5 C 167.5,65.5 173.5,65.5 179.5,65.5C 179.5,87.5 179.5,109.5 179.5,131.5C 177.5,131.5 175.5,131.5 173.5,131.5C 173.5,111.5 173.5,91.5 173.5,71.5C 171.5,71.5 169.5,71.5 167.5,71.5C 167.5,91.5 167.5,111.5 167.5,131.5C 163.5,131.5 159.5,131.5 155.5,131.5C 155.5,111.5 155.5,91.5 155.5,71.5C 157.5,71.5 159.5,71.5 161.5,71.5C 161.5,69.5 161.5,67.5 161.5,65.5 Z"/></g>
<g><path style="opacity:1" fill="#fefffe" d="M 239.5,65.5 C 243.5,65.5 247.5,65.5 251.5,65.5C 251.5,67.5 251.5,69.5 251.5,71.5C 253.5,71.5 255.5,71.5 257.5,71.5C 257.5,73.5 257.5,75.5 257.5,77.5C 253.5,77.5 249.5,77.5 245.5,77.5C 245.5,79.5 245.5,81.5 245.5,83.5C 249.5,83.5 253.5,83.5 257.5,83.5C 257.5,87.5 257.5,91.5 257.5,95.5C 253.5,95.5 249.5,95.5 245.5,95.5C 245.5,105.5 245.5,115.5 245.5,125.5C 249.5,125.5 253.5,125.5 257.5,125.5C 257.5,127.5 257.5,129.5 257.5,131.5C 251.5,131.5 245.5,131.5 239.5,131.5C 239.5,109.5 239.5,87.5 239.5,65.5 Z"/></g>
<g><path style="opacity:1" fill="#fefffe" d="M 269.5,65.5 C 275.5,65.5 281.5,65.5 287.5,65.5C 287.5,87.5 287.5,109.5 287.5,131.5C 285.5,131.5 283.5,131.5 281.5,131.5C 281.5,119.5 281.5,107.5 281.5,95.5C 279.5,95.5 277.5,95.5 275.5,95.5C 275.5,107.5 275.5,119.5 275.5,131.5C 271.5,131.5 267.5,131.5 263.5,131.5C 263.5,111.5 263.5,91.5 263.5,71.5C 265.5,71.5 267.5,71.5 269.5,71.5C 269.5,69.5 269.5,67.5 269.5,65.5 Z M 275.5,71.5 C 275.5,75.5 275.5,79.5 275.5,83.5C 277.5,83.5 279.5,83.5 281.5,83.5C 281.5,79.5 281.5,75.5 281.5,71.5C 279.5,71.5 277.5,71.5 275.5,71.5 Z"/></g>
<g><path style="opacity:1" fill="#fefffe" d="M 311.5,71.5 C 313.5,71.5 315.5,71.5 317.5,71.5C 317.5,91.5 317.5,111.5 317.5,131.5C 309.5,131.5 301.5,131.5 293.5,131.5C 293.5,109.5 293.5,87.5 293.5,65.5C 299.5,65.5 305.5,65.5 311.5,65.5C 311.5,67.5 311.5,69.5 311.5,71.5 Z M 311.5,71.5 C 309.5,71.5 307.5,71.5 305.5,71.5C 305.5,89.5 305.5,107.5 305.5,125.5C 307.5,125.5 309.5,125.5 311.5,125.5C 311.5,107.5 311.5,89.5 311.5,71.5 Z"/></g>
<g><path style="opacity:1" fill="#fefffe" d="M 323.5,65.5 C 327.5,65.5 331.5,65.5 335.5,65.5C 335.5,67.5 335.5,69.5 335.5,71.5C 337.5,71.5 339.5,71.5 341.5,71.5C 341.5,73.5 341.5,75.5 341.5,77.5C 337.5,77.5 333.5,77.5 329.5,77.5C 329.5,79.5 329.5,81.5 329.5,83.5C 333.5,83.5 337.5,83.5 341.5,83.5C 341.5,87.5 341.5,91.5 341.5,95.5C 337.5,95.5 333.5,95.5 329.5,95.5C 329.5,105.5 329.5,115.5 329.5,125.5C 333.5,125.5 337.5,125.5 341.5,125.5C 341.5,127.5 341.5,129.5 341.5,131.5C 335.5,131.5 329.5,131.5 323.5,131.5C 323.5,109.5 323.5,87.5 323.5,65.5 Z"/></g>
<g><path style="opacity:1" fill="#fefffe" d="M 365.5,71.5 C 367.5,71.5 369.5,71.5 371.5,71.5C 371.5,91.5 371.5,111.5 371.5,131.5C 363.5,131.5 355.5,131.5 347.5,131.5C 347.5,109.5 347.5,87.5 347.5,65.5C 353.5,65.5 359.5,65.5 365.5,65.5C 365.5,67.5 365.5,69.5 365.5,71.5 Z M 365.5,71.5 C 363.5,71.5 361.5,71.5 359.5,71.5C 359.5,89.5 359.5,107.5 359.5,125.5C 361.5,125.5 363.5,125.5 365.5,125.5C 365.5,107.5 365.5,89.5 365.5,71.5 Z"/></g>
<g><path style="opacity:1" fill="#fefffe" d="M 119.5,137.5 C 207.5,137.5 295.5,137.5 383.5,137.5C 383.5,139.5 383.5,141.5 383.5,143.5C 295.5,143.5 207.5,143.5 119.5,143.5C 119.5,141.5 119.5,139.5 119.5,137.5 Z"/></g>
</svg>
