<?xml version="1.0" encoding="UTF-8"?>
<!DOCTYPE svg PUBLIC "-//W3C//DTD SVG 1.1//EN" "http://www.w3.org/Graphics/SVG/1.1/DTD/svg11.dtd">
<svg xmlns="http://www.w3.org/2000/svg" version="1.1" width="1066px" height="416px" style="shape-rendering:geometricPrecision; text-rendering:geometricPrecision; image-rendering:optimizeQuality; fill-rule:evenodd; clip-rule:evenodd" xmlns:xlink="http://www.w3.org/1999/xlink">
<g><path style="opacity:1" fill="#fefffe" d="M 233.5,77.5 C 441.5,77.5 649.5,77.5 857.5,77.5C 857.5,81.8333 857.5,86.1667 857.5,90.5C 649.5,90.5 441.5,90.5 233.5,90.5C 233.5,86.1667 233.5,81.8333 233.5,77.5 Z"/></g>
<g><path style="opacity:1" fill="#fefffe" d="M 181.5,103.5 C 424.167,103.5 666.833,103.5 909.5,103.5C 909.5,172.833 909.5,242.167 909.5,311.5C 896.5,311.5 883.5,311.5 870.5,311.5C 870.5,307.167 870.5,302.833 870.5,298.5C 879.167,298.5 887.833,298.5 896.5,298.5C 896.5,237.833 896.5,177.167 896.5,116.5C 662.5,116.5 428.5,116.5 194.5,116.5C 194.5,177.167 194.5,237.833 194.5,298.5C 203.167,298.5 211.833,298.5 220.5,298.5C 220.5,302.833 220.5,307.167 220.5,311.5C 207.5,311.5 194.5,311.5 181.5,311.5C 181.5,242.167 181.5,172.833 181.5,103.5 Z M 597.5,155.5 C 601.833,155.5 606.167,155.5 610.5,155.5C 610.5,164.167 610.5,172.833 610.5,181.5C 606.167,181.5 601.833,181.5 597.5,181.5C 597.5,172.833 597.5,164.167 597.5,155.5 Z M 675.5,155.5 C 675.5,194.5 675.5,233.5 675.5,272.5C 671.167,272.5 666.833,272.5 662.5,272.5C 662.5,233.5 662.5,194.5 662.5,155.5C 666.833,155.5 671.167,155.5 675.5,155.5 Z M 792.5,155.5 C 792.5,194.5 792.5,233.5 792.5,272.5C 788.167,272.5 783.833,272.5 779.5,272.5C 779.5,233.5 779.5,194.5 779.5,155.5C 783.833,155.5 788.167,155.5 792.5,155.5 Z"/></g>
<g><path style="opacity:1" fill="#fefffe" d="M 233.5,129.5 C 237.833,129.5 242.167,129.5 246.5,129.5C 246.5,194.5 246.5,259.5 246.5,324.5C 445.833,324.5 645.167,324.5 844.5,324.5C 844.5,259.5 844.5,194.5 844.5,129.5C 848.833,129.5 853.167,129.5 857.5,129.5C 857.5,198.833 857.5,268.167 857.5,337.5C 649.5,337.5 441.5,337.5 233.5,337.5C 233.5,268.167 233.5,198.833 233.5,129.5 Z M 597.5,155.5 C 597.5,164.167 597.5,172.833 597.5,181.5C 601.833,181.5 606.167,181.5 610.5,181.5C 610.5,172.833 610.5,164.167 610.5,155.5C 606.167,155.5 601.833,155.5 597.5,155.5 Z M 675.5,155.5 C 671.167,155.5 666.833,155.5 662.5,155.5C 662.5,194.5 662.5,233.5 662.5,272.5C 666.833,272.5 671.167,272.5 675.5,272.5C 675.5,233.5 675.5,194.5 675.5,155.5 Z M 792.5,155.5 C 788.167,155.5 783.833,155.5 779.5,155.5C 779.5,194.5 779.5,233.5 779.5,272.5C 783.833,272.5 788.167,272.5 792.5,272.5C 792.5,233.5 792.5,194.5 792.5,155.5 Z"/></g>
<g><path style="opacity:1" fill="#fefffe" d="M 272.5,129.5 C 281.167,129.5 289.833,129.5 298.5,129.5C 298.5,177.167 298.5,224.833 298.5,272.5C 302.833,272.5 307.167,272.5 311.5,272.5C 311.5,224.833 311.5,177.167 311.5,129.5C 315.833,129.5 320.167,129.5 324.5,129.5C 324.5,181.5 324.5,233.5 324.5,285.5C 311.5,285.5 298.5,285.5 285.5,285.5C 285.5,281.167 285.5,276.833 285.5,272.5C 281.167,272.5 276.833,272.5 272.5,272.5C 272.5,224.833 272.5,177.167 272.5,129.5 Z"/></g>
<g><path style="opacity:1" fill="#fefffe" d="M 454.5,129.5 C 458.833,129.5 463.167,129.5 467.5,129.5C 467.5,146.833 467.5,164.167 467.5,181.5C 471.833,181.5 476.167,181.5 480.5,181.5C 480.5,164.167 480.5,146.833 480.5,129.5C 484.833,129.5 489.167,129.5 493.5,129.5C 493.5,133.833 493.5,138.167 493.5,142.5C 497.833,142.5 502.167,142.5 506.5,142.5C 506.5,190.167 506.5,237.833 506.5,285.5C 497.833,285.5 489.167,285.5 480.5,285.5C 480.5,259.5 480.5,233.5 480.5,207.5C 476.167,207.5 471.833,207.5 467.5,207.5C 467.5,233.5 467.5,259.5 467.5,285.5C 463.167,285.5 458.833,285.5 454.5,285.5C 454.5,233.5 454.5,181.5 454.5,129.5 Z"/></g>
<g><path style="opacity:1" fill="#fefffe" d="M 350.5,142.5 C 363.5,142.5 376.5,142.5 389.5,142.5C 389.5,190.167 389.5,237.833 389.5,285.5C 385.167,285.5 380.833,285.5 376.5,285.5C 376.5,242.167 376.5,198.833 376.5,155.5C 372.167,155.5 367.833,155.5 363.5,155.5C 363.5,198.833 363.5,242.167 363.5,285.5C 354.833,285.5 346.167,285.5 337.5,285.5C 337.5,242.167 337.5,198.833 337.5,155.5C 341.833,155.5 346.167,155.5 350.5,155.5C 350.5,151.167 350.5,146.833 350.5,142.5 Z"/></g>
<g><path style="opacity:1" fill="#fefffe" d="M 519.5,142.5 C 528.167,142.5 536.833,142.5 545.5,142.5C 545.5,146.833 545.5,151.167 545.5,155.5C 549.833,155.5 554.167,155.5 558.5,155.5C 558.5,159.833 558.5,164.167 558.5,168.5C 549.833,168.5 541.167,168.5 532.5,168.5C 532.5,172.833 532.5,177.167 532.5,181.5C 541.167,181.5 549.833,181.5 558.5,181.5C 558.5,190.167 558.5,198.833 558.5,207.5C 549.833,207.5 541.167,207.5 532.5,207.5C 532.5,229.167 532.5,250.833 532.5,272.5C 541.167,272.5 549.833,272.5 558.5,272.5C 558.5,276.833 558.5,281.167 558.5,285.5C 545.5,285.5 532.5,285.5 519.5,285.5C 519.5,237.833 519.5,190.167 519.5,142.5 Z"/></g>
<g><path style="opacity:1" fill="#fefffe" d="M 584.5,142.5 C 597.5,142.5 610.5,142.5 623.5,142.5C 623.5,190.167 623.5,237.833 623.5,285.5C 619.167,285.5 614.833,285.5 610.5,285.5C 610.5,259.5 610.5,233.5 610.5,207.5C 606.167,207.5 601.833,207.5 597.5,207.5C 597.5,233.5 597.5,259.5 597.5,285.5C 588.833,285.5 580.167,285.5 571.5,285.5C 571.5,242.167 571.5,198.833 571.5,155.5C 575.833,155.5 580.167,155.5 584.5,155.5C 584.5,151.167 584.5,146.833 584.5,142.5 Z M 597.5,155.5 C 597.5,164.167 597.5,172.833 597.5,181.5C 601.833,181.5 606.167,181.5 610.5,181.5C 610.5,172.833 610.5,164.167 610.5,155.5C 606.167,155.5 601.833,155.5 597.5,155.5 Z"/></g>
<g><path style="opacity:1" fill="#fefffe" d="M 675.5,155.5 C 679.833,155.5 684.167,155.5 688.5,155.5C 688.5,198.833 688.5,242.167 688.5,285.5C 671.167,285.5 653.833,285.5 636.5,285.5C 636.5,237.833 636.5,190.167 636.5,142.5C 649.5,142.5 662.5,142.5 675.5,142.5C 675.5,146.833 675.5,151.167 675.5,155.5 Z M 675.5,155.5 C 671.167,155.5 666.833,155.5 662.5,155.5C 662.5,194.5 662.5,233.5 662.5,272.5C 666.833,272.5 671.167,272.5 675.5,272.5C 675.5,233.5 675.5,194.5 675.5,155.5 Z"/></g>
<g><path style="opacity:1" fill="#fefffe" d="M 701.5,142.5 C 710.167,142.5 718.833,142.5 727.5,142.5C 727.5,146.833 727.5,151.167 727.5,155.5C 731.833,155.5 736.167,155.5 740.5,155.5C 740.5,159.833 740.5,164.167 740.5,168.5C 731.833,168.5 723.167,168.5 714.5,168.5C 714.5,172.833 714.5,177.167 714.5,181.5C 723.167,181.5 731.833,181.5 740.5,181.5C 740.5,190.167 740.5,198.833 740.5,207.5C 731.833,207.5 723.167,207.5 714.5,207.5C 714.5,229.167 714.5,250.833 714.5,272.5C 723.167,272.5 731.833,272.5 740.5,272.5C 740.5,276.833 740.5,281.167 740.5,285.5C 727.5,285.5 714.5,285.5 701.5,285.5C 701.5,237.833 701.5,190.167 701.5,142.5 Z"/></g>
<g><path style="opacity:1" fill="#fefffe" d="M 792.5,155.5 C 796.833,155.5 801.167,155.5 805.5,155.5C 805.5,198.833 805.5,242.167 805.5,285.5C 788.167,285.5 770.833,285.5 753.5,285.5C 753.5,237.833 753.5,190.167 753.5,142.5C 766.5,142.5 779.5,142.5 792.5,142.5C 792.5,146.833 792.5,151.167 792.5,155.5 Z M 792.5,155.5 C 788.167,155.5 783.833,155.5 779.5,155.5C 779.5,194.5 779.5,233.5 779.5,272.5C 783.833,272.5 788.167,272.5 792.5,272.5C 792.5,233.5 792.5,194.5 792.5,155.5 Z"/></g>
<g><path style="opacity:1" fill="#fefffe" d="M 259.5,298.5 C 450.167,298.5 640.833,298.5 831.5,298.5C 831.5,302.833 831.5,307.167 831.5,311.5C 640.833,311.5 450.167,311.5 259.5,311.5C 259.5,307.167 259.5,302.833 259.5,298.5 Z"/></g>
</svg>
