<?xml version="1.0" encoding="UTF-8"?>
<!DOCTYPE svg PUBLIC "-//W3C//DTD SVG 1.1//EN" "http://www.w3.org/Graphics/SVG/1.1/DTD/svg11.dtd">
<svg xmlns="http://www.w3.org/2000/svg" version="1.1" width="480px" height="480px" style="shape-rendering:geometricPrecision; text-rendering:geometricPrecision; image-rendering:optimizeQuality; fill-rule:evenodd; clip-rule:evenodd" xmlns:xlink="http://www.w3.org/1999/xlink">
<g><path style="opacity:1" fill="#fefffe" d="M 164.5,149.5 C 174.5,149.5 184.5,149.5 194.5,149.5C 194.5,204.5 194.5,259.5 194.5,314.5C 199.5,314.5 204.5,314.5 209.5,314.5C 209.5,259.5 209.5,204.5 209.5,149.5C 214.5,149.5 219.5,149.5 224.5,149.5C 224.5,209.5 224.5,269.5 224.5,329.5C 209.5,329.5 194.5,329.5 179.5,329.5C 179.5,324.5 179.5,319.5 179.5,314.5C 174.5,314.5 169.5,314.5 164.5,314.5C 164.5,259.5 164.5,204.5 164.5,149.5 Z"/></g>
<g><path style="opacity:1" fill="#fefffe" d="M 254.5,149.5 C 259.5,149.5 264.5,149.5 269.5,149.5C 269.5,169.5 269.5,189.5 269.5,209.5C 274.5,209.5 279.5,209.5 284.5,209.5C 284.5,189.5 284.5,169.5 284.5,149.5C 289.5,149.5 294.5,149.5 299.5,149.5C 299.5,154.5 299.5,159.5 299.5,164.5C 304.5,164.5 309.5,164.5 314.5,164.5C 314.5,219.5 314.5,274.5 314.5,329.5C 304.5,329.5 294.5,329.5 284.5,329.5C 284.5,299.5 284.5,269.5 284.5,239.5C 279.5,239.5 274.5,239.5 269.5,239.5C 269.5,269.5 269.5,299.5 269.5,329.5C 264.5,329.5 259.5,329.5 254.5,329.5C 254.5,269.5 254.5,209.5 254.5,149.5 Z"/></g>
</svg>
